<svg width="38.000000" height="35.001953" viewBox="0 0 38 35.002" fill="none" xmlns="http://www.w3.org/2000/svg" xmlns:xlink="http://www.w3.org/1999/xlink">
	<defs/>
	<path id="Vector" d="M10.6328 25.3342L10.6328 25.3342C10.6348 25.3342 10.6367 25.334 10.6367 25.334L28.166 25.334C28.5977 25.334 28.9766 25.0476 29.0957 24.6328L32.9629 11.0977C33.0469 10.8059 32.9883 10.4922 32.8047 10.25C32.623 10.0078 32.3359 9.86523 32.0332 9.86523L8.40234 9.86523L7.71094 6.75513C7.61328 6.31274 7.2207 5.99805 6.76758 5.99805L0.966797 5.99805C0.433594 5.99805 0 6.43091 0 6.96484C0 7.49878 0.433594 7.93164 0.966797 7.93164L5.99219 7.93164C6.11523 8.48267 9.29883 22.8149 9.48242 23.6396C8.45508 24.0862 7.73438 25.1106 7.73438 26.3008C7.73438 27.8999 9.03516 29.2012 10.6348 29.2012L28.166 29.2012C28.6992 29.2012 29.1328 28.7683 29.1328 28.2344C29.1328 27.7004 28.6992 27.2676 28.166 27.2676L10.6348 27.2676C10.1016 27.2676 9.66797 26.8337 9.66797 26.3008C9.66797 25.7686 10.0996 25.3354 10.6328 25.3342ZM30.752 11.7988L27.4375 23.4004L11.4102 23.4004L8.83203 11.7988L30.752 11.7988Z" fill="#956D84" fill-opacity="1.000000" fill-rule="nonzero"/>
	<path id="Vector" d="M9.66797 32.1016C9.66797 33.7007 10.9688 35.002 12.5684 35.002C14.168 35.002 15.4688 33.7007 15.4688 32.1016C15.4688 30.5024 14.168 29.2012 12.5684 29.2012C10.9688 29.2012 9.66797 30.5024 9.66797 32.1016ZM12.5684 31.1348C13.1016 31.1348 13.5352 31.5686 13.5352 32.1016C13.5352 32.6345 13.1016 33.0684 12.5684 33.0684C12.0352 33.0684 11.6016 32.6345 11.6016 32.1016C11.6016 31.5686 12.0352 31.1348 12.5684 31.1348Z" fill="#956D84" fill-opacity="1.000000" fill-rule="nonzero"/>
	<path id="Vector" d="M23.332 32.1016C23.332 33.7007 24.6328 35.002 26.2324 35.002C27.832 35.002 29.1328 33.7007 29.1328 32.1016C29.1328 30.5024 27.832 29.2012 26.2324 29.2012C24.6328 29.2012 23.332 30.5024 23.332 32.1016ZM26.2324 31.1348C26.7656 31.1348 27.1992 31.5686 27.1992 32.1016C27.1992 32.6345 26.7656 33.0684 26.2324 33.0684C25.6992 33.0684 25.2656 32.6345 25.2656 32.1016C25.2656 31.5686 25.6992 31.1348 26.2324 31.1348Z" fill="#956D84" fill-opacity="1.000000" fill-rule="nonzero"/>
</svg>
