<svg width="12.642578" height="12.666748" viewBox="0 0 12.6426 12.6667" fill="none" xmlns="http://www.w3.org/2000/svg" xmlns:xlink="http://www.w3.org/1999/xlink">
	<defs>
		<clipPath id="clip0_743">
			<rect id="facebook 1" width="12.641928" height="12.666667" fill="white" fill-opacity="0"/>
		</clipPath>
	</defs>
	<rect id="facebook 1" width="12.641928" height="12.666667" fill="#FFFFFF" fill-opacity="0"/>
	<g clip-path="url(#clip0_743)">
		<path id="Vector" d="M7.17383 12.6421L5.14453 12.6421C4.80664 12.6421 4.53125 12.3665 4.53125 12.0276L4.53125 7.45239L3.34766 7.45239C3.00781 7.45239 2.73242 7.17651 2.73242 6.83789L2.73242 4.87744C2.73242 4.53857 3.00781 4.26294 3.34766 4.26294L4.53125 4.26294L4.53125 3.28125C4.53125 2.30762 4.83594 1.47949 5.41406 0.88623C5.99414 0.290283 6.80664 -0.0246582 7.76172 -0.0246582L9.30859 -0.0222168C9.64648 -0.0214844 9.92188 0.25415 9.92188 0.592285L9.92188 2.4126C9.92188 2.75146 9.64648 3.0271 9.30664 3.0271L8.26562 3.02734C7.94922 3.02734 7.86719 3.09106 7.84961 3.1106C7.82227 3.14307 7.78711 3.23438 7.78711 3.4873L7.78711 4.26294L9.22852 4.26294C9.33789 4.26294 9.44336 4.28955 9.5332 4.34009C9.72852 4.44897 9.84961 4.65479 9.84961 4.87744L9.84766 6.83789C9.84766 7.17651 9.57227 7.45215 9.23438 7.45215L7.78711 7.45215L7.78711 12.0276C7.78711 12.3665 7.51172 12.6421 7.17383 12.6421ZM5.27344 11.8994L7.04492 11.8994L7.04492 7.11987C7.04492 6.89355 7.22852 6.70972 7.45508 6.70972L9.10547 6.70972L9.10742 5.00562L7.45508 5.00562C7.22852 5.00562 7.04492 4.82153 7.04492 4.59521L7.04492 3.4873C7.04492 3.19702 7.07422 2.86719 7.29297 2.61914C7.55859 2.31934 7.97461 2.28491 8.26562 2.28491L9.17969 2.28442L9.17969 0.720215L7.76172 0.718018C6.22656 0.718018 5.27344 1.7002 5.27344 3.28125L5.27344 4.59521C5.27344 4.82129 5.08789 5.00562 4.86328 5.00562L3.47461 5.00562L3.47461 6.70972L4.86328 6.70972C5.08789 6.70972 5.27344 6.89355 5.27344 7.11987L5.27344 11.8994ZM9.30664 0.720459L9.30664 0.720459L9.30664 0.720459Z" fill="#FFFFFF" fill-opacity="1.000000" fill-rule="nonzero"/>
	</g>
</svg>
