<svg width="26.916016" height="26.916992" viewBox="0 0 26.916 26.917" fill="none" xmlns="http://www.w3.org/2000/svg" xmlns:xlink="http://www.w3.org/1999/xlink">
	<defs/>
	<circle id="Ellipse 5" cx="13.458984" cy="13.458252" r="13.458333" fill="#956D84" fill-opacity="1.000000"/>
	<path id="Vector" d="M13.6445 5.69507C10.6504 5.69507 7.80664 5.43408 6.7207 8.16577C6.27148 9.29395 6.33789 10.7593 6.33789 12.8574C6.33789 14.6985 6.27734 16.4287 6.7207 17.5481C7.80469 20.2815 10.6699 20.0195 13.6426 20.0195C16.5098 20.0195 19.4668 20.312 20.5664 17.5481C21.0156 16.4084 20.9492 14.9651 20.9492 12.8574C20.9492 10.0593 21.1074 8.25317 19.7227 6.89697C18.3203 5.52295 16.4238 5.69507 13.6406 5.69507L13.6445 5.69507ZM13.459 6.85205C19 6.85205 20.1875 6.46411 19.793 15.7744C19.3965 18.8779 16.7891 19.0417 13.6445 19.0417C8.13672 19.0417 7.36328 18.49 7.24414 12.8574C7.10742 6.46411 9.10547 6.85205 13.459 6.85205ZM17.5449 8.17456C17.0605 8.17456 16.668 8.55933 16.668 9.03369C16.668 9.5083 17.0605 9.89282 17.5449 9.89282C18.0293 9.89282 18.4219 9.5083 18.4219 9.03369C18.4219 8.55933 18.0293 8.17456 17.5449 8.17456ZM13.6445 9.1792C11.5723 9.1792 9.89258 10.8264 9.89258 12.8574C9.89258 14.8884 11.5723 16.5347 13.6445 16.5347C15.7168 16.5347 17.3965 14.8884 17.3965 12.8574C17.3965 10.8264 15.7168 9.1792 13.6445 9.1792ZM13.6445 10.47C16.8652 10.47 16.8691 15.2446 13.6445 15.2446C10.4258 15.2446 10.4199 10.47 13.6445 10.47Z" fill="#FFFFFF" fill-opacity="1.000000" fill-rule="nonzero"/>
</svg>
