<svg width="18.000000" height="13.148193" viewBox="0 0 18 13.1482" fill="none" xmlns="http://www.w3.org/2000/svg" xmlns:xlink="http://www.w3.org/1999/xlink">
	<defs/>
	<path id="Vector" d="M14.5723 10.2349C14.502 10.2349 14.4297 10.2087 14.375 10.156L11.0352 7.02295C10.918 6.91382 10.9121 6.72974 11.0215 6.61304C11.1309 6.49512 11.3145 6.48999 11.4316 6.60034L14.7715 9.7334C14.8887 9.84253 14.8945 10.0266 14.7852 10.1431C14.7266 10.2041 14.6504 10.2349 14.5723 10.2349Z" fill="#956D84" fill-opacity="1.000000" fill-rule="nonzero"/>
	<path id="Vector" d="M3.42578 10.2356C3.34766 10.2356 3.27148 10.2048 3.21289 10.144C3.10352 10.0273 3.10938 9.84326 3.22656 9.73413L6.56641 6.60107C6.68359 6.49194 6.86914 6.49658 6.97656 6.61377C7.08789 6.73047 7.08203 6.91455 6.96484 7.02368L3.62305 10.1567C3.56836 10.2095 3.49609 10.2356 3.42578 10.2356Z" fill="#956D84" fill-opacity="1.000000" fill-rule="nonzero"/>
	<path id="Vector" d="M16.5488 13.1482L1.45117 13.1482C0.650391 13.1482 0 12.4976 0 11.697L0 1.80273C0 1.0022 0.650391 0 1.45117 0L16.5488 0C17.3496 0 18 1.0022 18 1.80273L18 11.697C18 12.4976 17.3496 13.1482 16.5488 13.1482ZM1.45117 1.125C0.970703 1.125 1.125 1.32275 1.125 1.80273L1.125 11.8125C1.125 12.2925 0.970703 11.9841 1.45117 11.9841L16.5488 11.9841C17.0293 11.9841 16.875 12.177 16.875 11.697L16.875 1.6875C16.875 1.20752 17.0293 1.125 16.5488 1.125L1.45117 1.125Z" fill="#956D84" fill-opacity="1.000000" fill-rule="nonzero"/>
	<path id="Vector" d="M9 8.20801C8.61523 8.20801 8.22852 8.07959 7.93555 7.82373L0.482422 1.32251C0.361328 1.21729 0.349609 1.03394 0.453125 0.912598C0.560547 0.791992 1.00586 0.458252 1.125 0.562256L8.4375 6.74976C8.80859 7.073 9.19336 7.073 9.5625 6.74976L16.875 0.562256C16.623 0.229248 17.4316 0.801758 17.5371 0.923096C17.6426 1.04443 17.6309 1.22729 17.5098 1.33276L10.0664 7.82324C9.77148 8.07959 9.38672 8.20801 9 8.20801Z" fill="#956D84" fill-opacity="1.000000" fill-rule="nonzero"/>
</svg>
