<svg width="18.041016" height="18.000000" viewBox="0 0 18.041 18" fill="none" xmlns="http://www.w3.org/2000/svg" xmlns:xlink="http://www.w3.org/1999/xlink">
	<defs/>
	<path id="Vector" d="M16.7871 17.0503L16.8047 17.0654L17.5996 16.2866C18.1738 15.7114 18.1895 14.7922 17.6367 14.2371L14.8496 11.4507C14.2949 10.8979 13.377 10.9148 12.8027 11.4893L11.3984 12.8926C11.3105 12.8438 11.2188 12.7927 11.1211 12.7385C10.2344 12.2473 9.02148 11.5742 7.74609 10.2966C6.46484 9.01636 5.79102 7.80127 5.29883 6.91431C5.24609 6.82031 5.19727 6.72974 5.14648 6.6438L6.08984 5.70312L6.55273 5.2395C7.12695 4.66406 7.14453 3.74536 6.58984 3.19092L3.80469 0.404297C3.25 -0.14917 2.33008 -0.132568 1.75586 0.442871L1.53516 0.665283L0.970703 1.23267L0.970703 1.23267L0.970703 1.23267L0.992188 1.25391L0.992188 1.25391C0.728516 1.58984 0.507812 1.97729 0.345703 2.39526C0.193359 2.79297 0.0996094 3.17236 0.0566406 3.55273C-0.310547 6.60278 1.08203 9.39014 4.86523 13.1724C10.0938 18.4004 14.3066 18.0054 14.4883 17.9861C14.8848 17.939 15.2637 17.8442 15.6484 17.6946C16.0645 17.5327 16.4512 17.313 16.7871 17.0503ZM1.75195 1.58203L1.62109 1.74731Q1.29492 2.16504 1.08984 2.68701Q0.904297 3.17432 0.851562 3.64258Q0.728516 4.66284 0.902344 5.63013Q0.904297 5.64795 0.908203 5.66577Q1.09375 6.67822 1.62109 7.73022Q2.16016 8.81177 3.09766 10.01Q4.03516 11.2102 5.43164 12.6067Q7.16602 14.3411 8.96875 15.4517Q10.4023 16.3342 11.8125 16.7849Q12.8164 17.1055 13.7109 17.1802Q13.9883 17.2034 14.2246 17.1995Q14.3398 17.1975 14.4043 17.1907Q14.8848 17.1331 15.3594 16.9487Q15.873 16.748 16.291 16.4226L16.293 16.4202L16.4219 16.3203L17.0391 15.7151Q17.1367 15.6177 17.1875 15.5002Q17.2383 15.3806 17.2402 15.24Q17.2441 15.0874 17.1855 14.9636Q17.1426 14.8755 17.0703 14.802L14.2852 12.0176L14.2852 12.0164Q14.2109 11.9443 14.125 11.9028Q14.002 11.8442 13.8477 11.8472Q13.7246 11.8494 13.6152 11.8914Q13.4805 11.9431 13.3672 12.0549L11.5371 13.8853L10.7324 13.4375Q10.2617 13.1772 9.99414 13.0188Q9.53125 12.7468 9.13086 12.4744Q8.33594 11.9358 7.63477 11.2969Q7.40234 11.085 7.17969 10.8621Q6.9668 10.6501 6.76562 10.429Q6.11523 9.71704 5.56641 8.91089Q5.29492 8.50977 5.02148 8.04785Q4.86523 7.78052 4.60156 7.30786L4.60156 7.30664L4.59961 7.3042L4.59961 7.30273Q4.58984 7.28809 4.57617 7.26147Q4.49219 7.10962 4.45312 7.04077L4.14844 6.50977L5.52344 5.13696L5.98633 4.67407Q6.09961 4.5603 6.15234 4.42334Q6.19336 4.31543 6.19531 4.19312Q6.19727 4.04126 6.13867 3.91846Q6.09766 3.82983 6.02344 3.75635L3.23828 0.969971Q3.16602 0.897949 3.08008 0.856445Q2.95508 0.797363 2.80273 0.800049Q2.67969 0.80249 2.57031 0.843506Q2.43359 0.895264 2.32227 1.00854L1.75195 1.58203Z" fill="#956D84" fill-opacity="1.000000" fill-rule="evenodd"/>
</svg>
