<svg width="18.117188" height="18.117676" viewBox="0 0 18.1172 18.1177" fill="none" xmlns="http://www.w3.org/2000/svg" xmlns:xlink="http://www.w3.org/1999/xlink">
	<defs/>
	<path id="Vector" d="M18.0078 16.9397L12.7441 11.6765C13.7422 10.4441 14.3438 8.87744 14.3438 7.17163C14.3438 3.21729 11.125 0 7.17188 0C3.2168 0 0 3.21729 0 7.17163C0 11.126 3.2168 14.3433 7.17188 14.3433C8.87695 14.3433 10.4434 13.7422 11.6758 12.7441L16.9395 18.0071C17.0879 18.1545 17.3262 18.1545 17.4727 18.0071L18.0078 17.4734C18.1543 17.3259 18.1543 17.0869 18.0078 16.9397ZM7.17188 12.8335C4.04883 12.8335 1.50977 10.2937 1.50977 7.17163C1.50977 4.04956 4.04883 1.50977 7.17188 1.50977C10.293 1.50977 12.834 4.04956 12.834 7.17163C12.834 10.2937 10.293 12.8335 7.17188 12.8335Z" fill="#956D84" fill-opacity="1.000000" fill-rule="nonzero"/>
</svg>
