<svg xmlns="http://www.w3.org/2000/svg" version="1.1" xmlns:xlink="http://www.w3.org/1999/xlink" width="512" height="512" x="0" y="0" viewBox="0 0 1707 1707" style="enable-background:new 0 0 512 512" xml:space="preserve" fill-rule="evenodd" class=""><g><g fill-rule="nonzero"><path fill="#956d84" d="M523 1289c6-5 6-13 0-18-5-6-13-6-18-1l-52 52c-5 5-5 14 0 19s14 5 19 0z" opacity="1" data-original="#247a1e" class=""></path><path fill="#956d84" d="M502 1273c-3 7-1 15 5 19 7 3 15 1 19-5l23-41c4-6 2-15-5-18-6-4-14-2-18 5z" opacity="1" data-original="#247a1e" class=""></path><path fill="#22671e" d="M411 1204c-7-1-14 4-16 11-1 7 4 14 11 16 0 0 36 7 79 41 12 10 25 22 37 36 13 14 25 31 36 51l3 3c6 7 61 70 80 83 6 5 15 3 19-3 4-7 2-15-4-19-16-11-68-71-75-79-12-21-26-39-39-54s-27-28-40-39c-49-38-91-47-91-47zM757 1222c-7 2-11 9-10 16 2 8 10 12 17 10l66-18c7-2 11-9 9-16s-9-12-16-10z" opacity="1" data-original="#22671e" class=""></path></g><path fill="#802b5c" d="M416 525c-153 105-189 344-25 402 8 47 35 132 78 46 92 78 235 77 338 50v1c58 130 253 82 353 36 86 21 64-15 108-47 41-29 75-60 100-89 308-39 197-493 47-704-1-2-1-1-2-3-19-50-56-91-117-116-77 5-115-24-133-46-121-146-196 34-221 136 0 0-169-150-265-87 0 0-94 94-148 76 0 0-47 74-97 100 0 0-127 50-16 245z" opacity="1" data-original="#bf261b" class=""></path><path fill="#956d84" fill-rule="nonzero" d="M821 1026c1-8-3-15-11-16-7-2-14 3-16 10l-54 245-90 133c-15 23-22 60-23 100-2 51 5 106 13 139v56c0 8 6 14 14 14 7 0 13-6 13-14v-61c-8-31-15-84-14-133 2-35 7-68 19-86l91-135c1-1 2-3 3-5l-13-3 13 3z" opacity="1" data-original="#247a1e" class=""></path><path fill="#3ec3a4" d="M143 1064c53-30 120-33 177 0s89 92 89 154c-53 30-121 32-178 0-56-33-88-93-88-154zM462 1331c14 38 7 84-22 121-28 37-70 56-110 53-13-37-6-83 22-120 28-38 71-56 110-54zM538 1239c-15-21-18-51-7-79 12-28 35-46 60-51 15 21 18 51 7 79-12 28-35 46-60 51z" opacity="1" data-original="#3ec3a4" class=""></path><path fill="#956d84" d="M1071 311c28 17 52 43 67 79 9 51 14 97 16 140 3 44 2 83-2 119 196-58 316-281 261-431-18-50-56-92-117-117-77 5-115-24-133-46-121-146-196 34-221 136-8 34-15 67-21 101 54-10 107-5 150 19z" opacity="1" data-original="#d63322" class=""></path><path fill="#802b5c" d="M477 493c-202 75-270 369-85 434 7 47 34 132 77 46 92 78 235 77 338 50 72-19 125-51 129-77-277 88-681-171-374-202-44-35-80-82-102-144 36-28 29-73 17-107z" opacity="1" data-original="#bf261b" class=""></path><path fill="#69224b" d="M562 744c-307 31 97 290 374 202 72-24 135-70 175-151-56 17-118 29-181 34-133 12-271-8-368-85z" opacity="1" data-original="#a31714" class=""></path><path fill="#913168" d="M562 744c97 77 235 97 368 85-13-24-19-47-20-69-14-14-28-32-40-50-188 72-230-115-165-273 0 0-232-107-252 11 0 0 14 19 24 45 12 34 19 79-17 107 22 62 58 109 102 144z" opacity="1" data-original="#7a0c0c" class=""></path><path fill="#562441" d="M705 437c-65 158-23 345 165 273-32-48-56-105-57-158 23 0 47-1 70-2-52-195 188-239 188-239-43-24-96-29-150-19-85 17-171 71-216 145z" opacity="1" data-original="#ed4a3e" class=""></path><path fill="#956d84" d="M1111 795c-40 81-103 127-175 151-4 26-57 58-129 77v1c58 130 253 82 353 36 86 21 64-15 108-47 42-29 75-60 100-89 102-123 53-230-233-191-6 23-15 43-24 62z" opacity="1" data-original="#d63322" class=""></path><path fill="#802b5c" d="M1135 733c286-39 335 68 233 191 309-39 196-496 45-706 55 150-65 373-261 431-4 30-9 58-17 84z" opacity="1" data-original="#bf261b" class=""></path><path fill="#69224b" d="M930 829c-81-146 110-256 224-299-2-43-7-89-16-140-34 100-102 137-184 152-23 4-47 6-71 8-23 1-47 2-70 2 1 53 25 110 57 158 12 18 26 36 40 50 1 22 7 45 20 69z" opacity="1" data-original="#a31714" class=""></path><path fill="#913168" d="M954 542c69-13 128-40 165-108-102-49-165 2-165 108z" opacity="1" data-original="#7a0c0c" class=""></path><path fill="#69224b" d="M954 542c0-106 63-157 165-108 7-13 13-27 19-44-15-36-39-62-67-79 0 0-240 44-188 239 24-2 48-4 71-8z" opacity="1" data-original="#a31714" class=""></path><path fill="#802b5c" d="M477 493c-10-26-24-45-24-45 20-118 252-11 252-11 45-74 131-128 216-145 6-34 13-67 21-101 0 0-169-150-265-87 0 0-94 94-148 76 0 0-47 74-97 100 0 0-127 50-16 244 19-12 39-23 61-31z" opacity="1" data-original="#bf261b" class=""></path><path fill="#562441" d="M1154 530c-114 43-305 153-224 299 63-5 125-18 181-34 9-19 18-39 24-62 8-26 13-54 17-84 4-36 5-75 2-119z" opacity="1" data-original="#ed4a3e" class=""></path></g></svg>