<svg width="14.000000" height="14.000000" viewBox="0 0 14 14" fill="none" xmlns="http://www.w3.org/2000/svg" xmlns:xlink="http://www.w3.org/1999/xlink">
	<defs>
		<clipPath id="clip0_726">
			<rect id="telegram (3) 1" width="14.000000" height="14.000000" fill="white" fill-opacity="0"/>
		</clipPath>
	</defs>
	<rect id="telegram (3) 1" width="14.000000" height="14.000000" fill="#FFFFFF" fill-opacity="0"/>
	<g clip-path="url(#clip0_726)">
		<path id="Vector" d="M13.7832 1.39062C13.6133 1.18164 13.3574 1.06641 13.0625 1.06641C12.9023 1.06641 12.7324 1.1001 12.5586 1.1665L0.708984 5.69043C0.0800781 5.93042 -0.00585938 6.29053 0 6.48389C0.00585938 6.67725 0.111328 7.03198 0.751953 7.23608C0.755859 7.2373 0.759766 7.23853 0.763672 7.2395L3.22266 7.94312L4.55078 11.7444C4.73242 12.2627 5.13867 12.5847 5.61328 12.5847C5.91211 12.5847 6.20508 12.4595 6.46289 12.2227L7.98438 10.8228L10.1895 12.5986C10.1895 12.5986 10.1895 12.5989 10.1895 12.5991L10.2109 12.616C10.2129 12.6174 10.2148 12.6191 10.2168 12.6206C10.4609 12.8105 10.7285 12.9111 10.9902 12.9111L10.9902 12.9111C11.502 12.9111 11.9082 12.5332 12.0254 11.9482L13.9688 2.36035C14.0469 1.97559 13.9805 1.63135 13.7832 1.39062ZM4.04492 7.80933L8.78711 5.38672L5.83398 8.52441C5.78516 8.57568 5.75195 8.63867 5.73438 8.70728L5.16406 11.0137L4.04492 7.80933ZM5.9082 11.6194C5.88672 11.6372 5.86719 11.6536 5.84766 11.6682L6.37695 9.52856L7.33789 10.3025L5.9082 11.6194ZM13.1641 2.19751L11.2227 11.7854C11.2031 11.8772 11.1445 12.0908 10.9902 12.0908C10.9141 12.0908 10.8184 12.0493 10.7227 11.9744L8.22266 9.96216C8.22266 9.96191 8.22266 9.96167 8.2207 9.96143L6.73438 8.76392L11.0059 4.22632C11.1426 4.08105 11.1543 3.85864 11.0352 3.69897C10.9141 3.53931 10.6973 3.48926 10.5195 3.58008L3.49609 7.16821L1.00391 6.45532L12.8516 1.93286C12.9512 1.89478 13.0215 1.88672 13.0625 1.88672C13.0879 1.88672 13.1328 1.88965 13.1484 1.91016C13.1699 1.93677 13.1992 2.02734 13.1641 2.19751Z" fill="#FFFFFF" fill-opacity="1.000000" fill-rule="nonzero"/>
	</g>
</svg>
