<svg width="15.000000" height="15.000000" viewBox="0 0 15 15" fill="none" xmlns="http://www.w3.org/2000/svg" xmlns:xlink="http://www.w3.org/1999/xlink">
	<defs>
		<clipPath id="clip0_733">
			<rect id="viber (1) 1" width="15.000000" height="15.000000" fill="white" fill-opacity="0"/>
		</clipPath>
	</defs>
	<rect id="viber (1) 1" width="15.000000" height="15.000000" fill="#FFFFFF" fill-opacity="0"/>
	<g clip-path="url(#clip0_733)">
		<path id="Vector" d="M8.92969 0L6.07227 0C3.08008 0 0.644531 2.43408 0.644531 5.42603L0.644531 7.99976C0.644531 10.2278 2.01367 12.2302 4.07227 13.0459L4.07227 14.7144C4.07227 14.8274 4.13867 14.9297 4.24219 14.9753C4.2793 14.9919 4.31836 15 4.35742 15C4.42773 15 4.49609 14.9746 4.54883 14.926L6.20703 13.4258L8.92969 13.4258C11.9219 13.4258 14.3555 10.9917 14.3555 7.99976L14.3555 5.42603C14.3555 2.43408 11.9219 0 8.92969 0ZM13.7852 7.99976C13.7852 10.6765 11.6074 12.8545 8.92969 12.8545L6.0957 12.8545C6.02539 12.8545 5.95703 12.8806 5.9043 12.9285L4.64453 14.0703L4.64453 12.8479C4.64453 12.7268 4.56836 12.6189 4.45312 12.5789C2.51758 11.894 1.2168 10.054 1.2168 7.99976L1.2168 5.42603C1.2168 2.74902 3.39453 0.571289 6.07227 0.571289L8.92969 0.571289C11.6074 0.571289 13.7852 2.74902 13.7852 5.42603L13.7852 7.99976Z" fill="#FFFFFF" fill-opacity="1.000000" fill-rule="nonzero"/>
		<path id="Vector" d="M11.2754 8.71045L9.51953 7.57007C9.32812 7.44531 9.09961 7.40308 8.875 7.44946C8.65234 7.49658 8.45898 7.62866 8.33398 7.82153L8.25195 7.94849C7.49219 7.69727 6.6543 7.37646 6.15234 5.92456L6.35938 5.7439C6.7168 5.43408 6.75391 4.89185 6.44336 4.53491L5.07031 2.95483C4.9668 2.83569 4.78711 2.82349 4.66797 2.92651L3.80469 3.67603C3.04883 4.33374 3.40234 5.3064 3.51758 5.62598C3.52344 5.64038 3.5293 5.65405 3.53711 5.66748C3.56641 5.72119 4.2832 6.99927 5.43945 8.17725C6.60156 9.36011 8.69727 10.4524 8.76172 10.4841C9.00195 10.6396 9.27148 10.7141 9.53711 10.7141C10.0059 10.7141 10.4629 10.4846 10.7383 10.0642L11.3594 9.1062C11.4453 8.97339 11.4082 8.79639 11.2754 8.71045ZM10.2578 9.75293C10 10.1494 9.46875 10.262 9.04883 9.99121C9.02734 9.98022 6.94531 8.89551 5.84766 7.77734C4.82227 6.73218 4.14062 5.5708 4.04688 5.40894C3.82031 4.77441 3.86133 4.38452 4.17969 4.10742L4.82617 3.54541L6.01367 4.90967C6.11914 5.03076 6.10547 5.20776 5.98633 5.31274L5.63477 5.61719C5.54883 5.69141 5.51562 5.80884 5.54883 5.91675C6.14648 7.85864 7.30859 8.23999 8.1582 8.51855L8.28125 8.55933C8.4043 8.60107 8.54102 8.55347 8.61133 8.44434L8.81445 8.13232C8.85547 8.06787 8.91992 8.02417 8.99414 8.0083C9.06836 7.99243 9.14453 8.00732 9.20898 8.04932L10.7246 9.03394L10.2578 9.75293Z" fill="#FFFFFF" fill-opacity="1.000000" fill-rule="nonzero"/>
		<path id="Vector" d="M8.15039 4.64111C8 4.59741 7.8418 4.68555 7.79883 4.83765C7.75586 4.98926 7.84375 5.14722 7.99414 5.19043C8.41992 5.31152 8.75977 5.65112 8.87891 6.07715C8.91406 6.20264 9.0293 6.2854 9.1543 6.2854C9.17969 6.2854 9.20508 6.28198 9.23242 6.27466C9.38281 6.23193 9.47266 6.07422 9.42969 5.92212C9.25586 5.30688 8.76562 4.81592 8.15039 4.64111Z" fill="#FFFFFF" fill-opacity="1.000000" fill-rule="nonzero"/>
		<path id="Vector" d="M10.3262 6.34717C10.3516 6.34717 10.3789 6.34375 10.4043 6.33643C10.5566 6.2937 10.6445 6.13574 10.6016 5.98413C10.2637 4.78906 9.31445 3.83618 8.11914 3.49634C7.96875 3.45264 7.81055 3.5415 7.76758 3.69312C7.72461 3.84473 7.8125 4.00269 7.96289 4.0459C8.96875 4.33154 9.76758 5.13379 10.0527 6.13916C10.0879 6.26489 10.2012 6.34717 10.3262 6.34717Z" fill="#FFFFFF" fill-opacity="1.000000" fill-rule="nonzero"/>
		<path id="Vector" d="M7.99414 2.16577C7.84375 2.12207 7.68555 2.21021 7.64258 2.36255C7.59961 2.51416 7.6875 2.67212 7.83789 2.71533C9.54102 3.19946 10.8965 4.55859 11.377 6.26196C11.4121 6.3877 11.5273 6.47021 11.6523 6.47021C11.6777 6.47021 11.7031 6.4668 11.7305 6.45972C11.8809 6.41675 11.9707 6.25879 11.9277 6.10718C11.3926 4.21411 9.88672 2.7041 7.99414 2.16577Z" fill="#FFFFFF" fill-opacity="1.000000" fill-rule="nonzero"/>
	</g>
</svg>
